<?xml version="1.0" encoding="utf-8"?>
<!-- Generator: Adobe Illustrator 22.1.0, SVG Export Plug-In . SVG Version: 6.00 Build 0)  -->
<svg version="1.1" id="Layer_1" xmlns="http://www.w3.org/2000/svg" xmlns:xlink="http://www.w3.org/1999/xlink" x="0px" y="0px"
	 viewBox="0 0 742.4 223.5" style="enable-background:new 0 0 742.4 223.5;" xml:space="preserve">
<style type="text/css">
	.st0{fill:#FFFFFF;}
</style>
<path class="st0" d="M651.5,77.8l4.9-0.8l0,11.7l13.4,0l0,3.1c0,2.1-1.7,3.9-3.9,3.9l-9.5,0l0,15.3c0,3,0.5,5.2,1.4,6.5
	c1,1.3,2.6,1.9,4.9,1.9c1.6,0,3-0.2,4.2-0.5c1.2-0.3,2.2-0.6,2.9-0.9l0.9,4.3c0.3,1.6-0.6,3.2-2.2,3.6l-1.2,0.3
	c-1.6,0.5-3.6,0.7-5.8,0.7c-2.7,0-4.9-0.4-6.7-1.1c-1.8-0.7-3.2-1.8-4.3-3.1c-1.1-1.4-1.8-3-2.2-5c-0.4-1.9-0.6-4.2-0.6-6.7l0-28.8
	C647.7,80.1,649.3,78.2,651.5,77.8z"/>
<path class="st0" d="M574.8,107.4c0-3.3,0.5-6.2,1.5-8.7c1-2.5,2.3-4.6,3.9-6.2c1.6-1.7,3.5-2.9,5.6-3.7c2.1-0.8,4.3-1.3,6.5-1.3
	c5.2,0,9.2,1.6,12.1,4.8c2.9,3.2,4.3,8,4.3,14.3c0,0.5,0,1,0,1.6c0,0.6-0.1,1.1-0.1,1.6l-24.7,0c0.2,3,1.3,5.3,3.2,7
	c1.9,1.6,4.6,2.5,8.2,2.5c2.1,0,4-0.2,5.8-0.6c0.4-0.1,0.9-0.2,1.2-0.3c1.6-0.4,3.1,0.7,3.4,2.3l0.6,3.9c-0.5,0.2-1.1,0.5-2,0.8
	c-0.8,0.3-1.8,0.5-2.9,0.7c-1.1,0.2-2.2,0.4-3.5,0.5s-2.5,0.2-3.8,0.2c-3.3,0-6.2-0.5-8.6-1.5c-2.4-1-4.4-2.3-6-4.1
	c-1.6-1.7-2.7-3.8-3.5-6.2C575.2,112.8,574.8,110.2,574.8,107.4z M599.9,103.5c0-1.2-0.2-2.3-0.5-3.4s-0.8-2-1.5-2.8
	c-0.6-0.8-1.4-1.4-2.4-1.9c-0.9-0.5-2-0.7-3.3-0.7c-1.3,0-2.5,0.3-3.5,0.8c-1,0.5-1.9,1.2-2.5,2s-1.2,1.7-1.6,2.8
	c-0.4,1.1-0.6,2.1-0.8,3.2L599.9,103.5z"/>
<g>
	<path class="st0" d="M502.5,77.8c0,1.6-0.5,2.9-1.6,3.9c-1.1,1-2.3,1.4-3.7,1.4c-1.5,0-2.8-0.5-3.8-1.4c-1.1-1-1.6-2.3-1.6-3.9
		c0-1.7,0.5-3,1.6-4s2.3-1.4,3.8-1.4c1.4,0,2.7,0.5,3.7,1.4C502,74.8,502.5,76.2,502.5,77.8z"/>
	<path class="st0" d="M501.6,126.5l-2.4,0c-3.5,0-6.3-2.8-6.3-6.3l0-31.4l3,0c3.2,0,5.7,2.6,5.7,5.8L501.6,126.5z"/>
</g>
<path class="st0" d="M569,88.9c-2.3,0-2.9,1.2-3.9,3.8l-7.4,21.3L550,93.1c-0.9-2.7-1.7-4.2-4-4.2l-4.3,0l-2.1,0l13,33.8
	c1.2,2.5,2,3.8,4.3,3.8l4.4,0l14.3-37.6L569,88.9z"/>
<path class="st0" d="M537.7,98.2c-0.5-2.1-1.4-4-2.6-5.5c-1.2-1.5-2.9-2.7-4.9-3.5c-2.1-0.8-4.6-1.3-7.7-1.3c-3.3,0-6.3,0.2-9,0.7
	c-2.7,0.4-4.9,0.9-6.6,1.4v31.7h0l0,1c0,2.1,1.7,3.9,3.9,3.9h0.1v0h4.8V96c0.6-0.1,1.5-0.2,2.7-0.4c1.2-0.1,2.4-0.2,3.5-0.2
	c1.5,0,2.8,0.2,3.8,0.6c1,0.4,1.9,1.1,2.5,1.9c0.6,0.9,1,2,1.3,3.5c0.3,1.4,0.4,3.1,0.4,5.2v15h0l0,1c0,2.1,1.7,3.9,3.9,3.9v0h4.9
	v-21.2C538.5,102.7,538.2,100.4,537.7,98.2z"/>
<path class="st0" d="M643.3,98.2c-0.5-2.1-1.4-4-2.6-5.5c-1.2-1.5-2.9-2.7-4.9-3.5c-2.1-0.8-4.6-1.3-7.7-1.3c-3.3,0-6.3,0.2-9,0.7
	c-2.7,0.4-4.9,0.9-6.6,1.4v31.7h0l0,1c0,2.1,1.7,3.9,3.9,3.9h0.1v0h4.8V96c0.6-0.1,1.5-0.2,2.7-0.4c1.2-0.1,2.4-0.2,3.5-0.2
	c1.5,0,2.8,0.2,3.8,0.6c1,0.4,1.9,1.1,2.5,1.9c0.6,0.9,1,2,1.3,3.5c0.3,1.4,0.4,3.1,0.4,5.2v15h0l0,1c0,2.1,1.7,3.9,3.9,3.9v0h4.9
	v-21.2C644,102.7,643.8,100.4,643.3,98.2z"/>
<path class="st0" d="M395.1,96.7c0-4.8-0.3-7.9-3.4-7.9c-1.4,0-2.1,0.3-3.4,0.7c1.1,16.1-2.5,30.3-7,30.3c-5.8,0-2.9-34.5-15.2-34.5
	c-11.4,0-13,27.5-14.3,27.5c-0.9,0-1-7.2-1-12.7c0.5-2.6,0.7-5,0.7-6.8c0-2.6-1-7-6.9-4.8c0.2,19.7-3.7,31.6-8.2,31.6
	c-6.5,0-6.6-17.8-6.6-22.8c0-4.8,0.3-11.2-6.8-8.9c-1.1,17.2-5.6,30.1-8.4,30.1c-4.2,0-3.4-29.7-12.5-29.7
	c-8.2,0-10.8,28.1-12.5,28.1c-3.1,0,1-31.6-10.9-31.6c-6.2,0-8.7,10.6-11.1,22.4c-0.5,2.3-1,2.4-1.1-0.2c-0.1-2.1-0.1-4.5-0.1-6.6
	c3-11.9-0.7-16.3-6.2-13.1c1.8,21.9-8.3,32.6-16,32.6c-2.8,0-5-1.2-6.6-3.1c9.3-5.7,13.4-12.2,13.4-18.6c0-6.9-4-10.9-10.5-10.9
	c-9.2,0-14.3,9.5-14.3,17.5c0,4.3,0.8,8,2.1,11c-3.2,1.5-6.1,2.8-8.9,4.1c-0.2-8.3-1.2-17-1.9-25c-4.9-1.3-6.3,1-6.7,5.4
	c-0.9,9.9-4.5,16.1-7.8,16.1c-2.4,0-3.9-3-4.1-6.1c-0.9-15.9,12-20.3,18.8-18c1.4-3.5-0.1-6-6.2-6c-7.4,0-12.9,4.5-17,10.3
	c-2.7,3.8-5.8,6.6-10,9.9c0.1-1,0.2-1.9,0.2-2.8c0-11.2-6.1-16.2-11.9-16.2c-4.8,0-7.8,2.9-9.6,7.3c-0.4-4.4-1.3-6.3-3.9-6.3
	c-1.1,0-2.6,0.3-4.3,1.1c0.8,2.5,1,8,1,11.6c0,13.5-3.9,19.5-7.6,19.5c-4.3,0-4.9-16-5.3-22.2c-0.5-0.2-1.1-0.4-2.1-0.4
	c-3.8,0-4.3,5.2-5.3,9.9c-1.1,5.3-4.1,11.9-8.6,11.9c-2.7,0-4.4-2.6-4.6-7.3c-0.4-9.5,7.5-20.8,19.9-17.3c1.6-3.8-0.9-6.7-6.1-6.7
	c-9.1,0-16.6,6.8-19.9,14.8c-3.3,7.4-9.1,18.2-21,18.2c-8.4,0-14.7-7.3-14.7-22.6c0-13.2,8.3-25.7,17.2-25.7c6.2,0,7.6,6.1,7.1,11.8
	c3.2,2.6,8.5,0.2,8.5-6.3c0-4.4-3.6-12-15.2-12c-14.4,0-27.1,14.4-27.1,33.3c0,18.3,9.3,29.1,22.4,29.1c8.3,0,16.1-4.7,21.5-13.5
	c1.4,7.6,6.6,10.9,10.5,10.9c6.3,0,10.4-4.1,12.7-9.6c1.4,5.5,4.4,9.6,9.3,9.6c3.5,0,6.2-1.8,8.2-4.6c-0.8,19.3-1.8,31.5,9.6,29.1
	c-1.8-5.5-2.3-15.4-2.3-24.4c0-24.5,4-32.6,9.1-32.6c3.7,0,4.9,4.7,4.9,9.7c0,2.7-0.3,5.7-0.9,8.5c-6.2,3.9-11.2,7-11.2,11
	c0,3.1,2.3,3.4,4.3,3.4c4.8,0,10.5-4.7,13.7-13.5c2.8-1.7,5.6-3.6,8.2-6.2c-0.1,0.9-0.1,1.8-0.1,2.7c0,8.8,3.8,14.1,10,14.1
	c4.8,0,8.4-3.4,11-8.5c0.2,2.9,0.3,5.7,0.3,8.2c-9.8,4.5-20.6,9.1-20.6,21.8c0,6.6,4.8,11.5,10.9,11.5c13.6,0,16.7-14.3,16.8-31
	c4.4-1.9,7.7-3.4,11.5-5.3c3.3,4.1,7.7,6.1,11.7,6.1c7.7,0,13.4-4.1,18.1-12.3c0.8,6.3,2.4,12.3,5.8,12.3c6.1,0,7.3-31.8,11.8-31.8
	c3.5,0,0.6,34.4,9.8,34.4c7.8,0,9.3-30.3,13.1-30.3c2.7,0,2.9,27.7,11.4,27.7c4.2,0,8.7-5,11-15.6c1.1,7,4.6,15.6,11.5,15.6
	c4,0,7.5-4.1,10.2-9.5c0.7,5.6,2.3,9.5,5.4,9.5c8,0,7.7-31.7,14-31.7c4.9,0,3.4,31.7,15.1,31.7c5.6,0,8.2-4.7,9.8-10.7
	c2.2,8.8,5.6,10.7,8.5,10.7c1.8,0,3.2-0.6,5-2.8C394.4,120.3,395.1,106,395.1,96.7z M203.5,151.2c-2.8,0-4.3-2.7-4.3-5.7
	c0-8.1,6-12.5,13.3-16.2C212.1,147.2,208,151.2,203.5,151.2z M240,93.6c2.7,0,4.3,2.5,4,6.1c-0.3,4.2-3.4,9.1-8.8,12.9
	C232.5,104.6,234.6,93.6,240,93.6z"/>
<path class="st0" d="M326.8,81.5c2.6-0.1,4.4-2.3,4.4-5c0-2.7-1.8-4.8-4.4-4.7c-2.6,0.1-4.7,2.3-4.7,5
	C322,79.5,324.2,81.6,326.8,81.5z"/>
<path class="st0" d="M391.6,82.9c2.4-0.1,4.3-2.2,4.3-4.8c0-2.5-1.9-4.5-4.3-4.4c-2.4,0.1-4.3,2.2-4.3,4.8
	C387.4,81,389.3,83,391.6,82.9z"/>
<path class="st0" d="M465.6,92.1c-4.9,1.1-8.2,5.2-10.8,9.2c-2.8,4.3-5,9-7.9,13.3c-2.8,4-6.2,7.7-10.7,9.7
	c-4.7,2.1-9.9,2.4-14.8,0.8c-7.8-3.2-13.2-11-13.2-19.5c0-21.6,29.7-29.2,38.3-39.5c0,0,0,0,0,0l0,0c0.6,0.2,1.1,0.5,1.7,0.7
	c7,2.9,13.6,6.8,19.2,11.9c5.2,4.8,9.1,10.4,11,16.8C475.3,92.2,470,91,465.6,92.1z"/>
<path class="st0" d="M479.1,109.5c-1.6,5-5.7,9-10.8,10.4c-5.8,1.6-11.6-0.1-15.4-4.8c0.4,6,5.2,10,11.1,9.9
	c-3.8,3.8-9.4,5.6-14.5,6.5c-2.8,0.5-5.7,0.8-8.6,0.7c-2.5-0.1-5.5-0.4-7.6-2c4.6-1.4,8.7-4,11.9-7.5c2.9-3.2,5.1-6.9,7.1-10.6
	c2.1-3.9,3.9-8.1,6.5-11.7c2.3-3.2,5.3-5.8,9.4-6c4.2-0.2,8.4,1.5,10.4,5.4C480.2,102.9,480.1,106.3,479.1,109.5z"/>
</svg>
